# xmcd
#
# Track frame offsets:
#	150
#	17567
#	30582
#	47782
#	65087
#	91270
#	112920
#	123115
#	133717
#	142327
#	159482
#	167900
#	177342
#	206465
#	219525
#	236060
#	249445
#	269152
#	286055
#	296515
#	308310
#	322667
#	328512
#
# Disc length: 4586 seconds
#
# Revision: 0
# Processed by: cddbd v1.5.2PL0 Copyright (c) Steve Scherf et al.
# Submitted via: EZCDAudioConverter 2.1.7.1
#
DISCID=4b11e817
DTITLE=V/A - Varèse Sarabande: A 25th Anniversary Celebration 4/4
DYEAR=2003
DGENRE=
TTITLE0=Franz Waxman - Sunset Boulevard
TTITLE1=Jerry Goldsmith - L.A. Confidential
TTITLE2=Christopher Young - Rounders
TTITLE3=Howard Shore - The Score
TTITLE4=John Debney - The Replacements
TTITLE5=Trevor Rabin - Gone In 60 Seconds
TTITLE6=John Powell - The Bourne Identity
TTITLE7=Lalo Schifrin - Rush Hour 2
TTITLE8=Randy Edelman - XXX
TTITLE9=Michael Kamen - Die Hard
TTITLE10=Trevor Jones - The Last Of The Mohicans
TTITLE11=Christopher Gordon - Moby Dick
TTITLE12=Lee Holdridge - The Mists Of Avalon
TTITLE13=Alex North - Cleopatra
TTITLE14=Mark Isham - Life As A House
TTITLE15=Rachel Portman - Emma
TTITLE16=Thomas Newman - In The Bedroom
TTITLE17=Alan Silvestri - Cast Away
TTITLE18=Cliff Eidelman - One True Thing
TTITLE19=Jan A.P. Kaczmarek - Unfaithful
TTITLE20=Elmer Bernstein - Far From Heaven
TTITLE21=David Newman - Ice Age
TTITLE22=Harry Gregson-Williams and John Powell - Shrek
EXTD=
EXTT0=
EXTT1=
EXTT2=
EXTT3=
EXTT4=
EXTT5=
EXTT6=
EXTT7=
EXTT8=
EXTT9=
EXTT10=
EXTT11=
EXTT12=
EXTT13=
EXTT14=
EXTT15=
EXTT16=
EXTT17=
EXTT18=
EXTT19=
EXTT20=
EXTT21=
EXTT22=
PLAYORDER=
